<?xml version="1.0" encoding="utf-8"?>
<!-- Generator: Adobe Illustrator 16.0.0, SVG Export Plug-In . SVG Version: 6.00 Build 0)  -->
<!DOCTYPE svg PUBLIC "-//W3C//DTD SVG 1.1//EN" "http://www.w3.org/Graphics/SVG/1.1/DTD/svg11.dtd">
<svg version="1.1" id="Layer_1" xmlns="http://www.w3.org/2000/svg" xmlns:xlink="http://www.w3.org/1999/xlink" x="0px" y="0px"
	 width="50.998px" height="31.997px" viewBox="884.501 496.501 50.998 31.997"
	 enable-background="new 884.501 496.501 50.998 31.997" xml:space="preserve">
<g>
	<path fill="#231F20" d="M931.998,515.5h-6c-1.93,0-3.499,1.57-3.499,3.499v6c0,1.929,1.569,3.499,3.499,3.499h6
		c1.93,0,3.5-1.57,3.5-3.499v-6C935.498,517.07,933.928,515.5,931.998,515.5z M934.498,524.999c0,1.378-1.121,2.499-2.5,2.499h-6
		c-1.379,0-2.5-1.121-2.5-2.499v-6c0-1.378,1.121-2.499,2.5-2.499h6c1.379,0,2.5,1.121,2.5,2.499V524.999z"/>
	<path fill="#231F20" d="M894.002,515.5h-6c-1.93,0-3.5,1.57-3.5,3.499v6c0,1.929,1.57,3.499,3.5,3.499h6
		c1.93,0,3.499-1.57,3.499-3.499v-6C897.501,517.07,895.932,515.5,894.002,515.5z M896.502,524.999c0,1.378-1.121,2.499-2.5,2.499
		h-6c-1.379,0-2.5-1.121-2.5-2.499v-6c0-1.378,1.121-2.499,2.5-2.499h6c1.379,0,2.5,1.121,2.5,2.499V524.999z"/>
	<polygon fill="#231F20" points="910,523.983 912.984,520.999 907.016,520.999 	"/>
	<path fill="#231F20" d="M913,515.5h-6c-1.93,0-3.5,1.57-3.5,3.499v6c0,1.929,1.57,3.499,3.5,3.499h6c1.93,0,3.5-1.57,3.5-3.499v-6
		C916.5,517.07,914.93,515.5,913,515.5z M915.5,524.999c0,1.378-1.121,2.499-2.5,2.499h-6c-1.379,0-2.5-1.121-2.5-2.499v-6
		c0-1.378,1.121-2.499,2.5-2.499h6c1.379,0,2.5,1.121,2.5,2.499V524.999z"/>
	<polygon fill="#231F20" points="907.172,504.001 912.829,504.001 910.001,501.173 	"/>
	<path fill="#231F20" d="M913,496.501h-6c-1.93,0-3.5,1.57-3.5,3.5v6c0,1.929,1.57,3.499,3.5,3.499h6c1.93,0,3.5-1.57,3.5-3.499v-6
		C916.5,498.071,914.93,496.501,913,496.501z M915.5,506.001c0,1.378-1.121,2.499-2.5,2.499h-6c-1.379,0-2.5-1.121-2.5-2.499v-6
		c0-1.378,1.121-2.5,2.5-2.5h6c1.379,0,2.5,1.122,2.5,2.5V506.001z"/>
</g>
</svg>
